<svg width="32" height="32" viewBox="0 0 32 32" fill="none" xmlns="http://www.w3.org/2000/svg">
  {/* Центральный круг - золотисто-желтый */}
  <circle cx="16" cy="16" r="6" fill="#fbbf24"/>

  {/* Маленькие акцентные лепестки между основными */}
  <path d="M16 8 Q20 8 21 12 Q19 14 16 14 Q13 14 11 12 Q13 8 16 8 Z" fill="#ef4444"/>
  <path d="M24 16 Q24 12 20 11 Q18 13 18 16 Q18 19 20 21 Q24 20 24 16 Z" fill="#ec4899"/>
  <path d="M16 24 Q12 24 11 20 Q13 18 16 18 Q19 18 21 20 Q19 24 16 24 Z" fill="#10b981"/>
  <path d="M8 16 Q8 20 12 21 Q14 19 14 16 Q14 13 12 11 Q8 12 8 16 Z" fill="#8b5cf6"/>

  {/* Основные лепестки цветка - радужные градиенты */}
  {/* Верхний лепесток */}
  <path d="M16 4 Q24 4 26 12 Q22 14 16 14 Q10 14 6 12 Q8 4 16 4 Z" fill="url(#petalGradient1)"/>

  {/* Правый лепесток */}
  <path d="M28 16 Q28 8 20 6 Q18 10 18 16 Q18 22 20 26 Q28 24 28 16 Z" fill="url(#petalGradient2)"/>

  {/* Нижний лепесток */}
  <path d="M16 28 Q8 28 6 20 Q10 18 16 18 Q22 18 26 20 Q24 28 16 28 Z" fill="url(#petalGradient3)"/>

  {/* Левый лепесток */}
  <path d="M4 16 Q4 24 12 26 Q14 22 14 16 Q14 10 12 6 Q4 8 4 16 Z" fill="url(#petalGradient4)"/>

  {/* Градиенты */}
  <defs>
    {/* Основные лепестки - радужные градиенты */}
    <linearGradient id="petalGradient1" x1="0%" y1="0%" x2="100%" y2="100%">
      <stop offset="0%" stopColor="#ef4444"/>
      <stop offset="50%" stopColor="#f97316"/>
      <stop offset="100%" stopColor="#eab308"/>
    </linearGradient>

    <linearGradient id="petalGradient2" x1="0%" y1="0%" x2="100%" y2="100%">
      <stop offset="0%" stopColor="#ec4899"/>
      <stop offset="50%" stopColor="#a855f7"/>
      <stop offset="100%" stopColor="#6366f1"/>
    </linearGradient>

    <linearGradient id="petalGradient3" x1="0%" y1="0%" x2="100%" y2="100%">
      <stop offset="0%" stopColor="#10b981"/>
      <stop offset="50%" stopColor="#06b6d4"/>
      <stop offset="100%" stopColor="#3b82f6"/>
    </linearGradient>

    <linearGradient id="petalGradient4" x1="0%" y1="0%" x2="100%" y2="100%">
      <stop offset="0%" stopColor="#8b5cf6"/>
      <stop offset="50%" stopColor="#ec4899"/>
      <stop offset="100%" stopColor="#f97316"/>
    </linearGradient>
  </defs>
</svg>
